<svg width="48" height="48" viewBox="0 0 48 48" fill="none" xmlns="http://www.w3.org/2000/svg">
<rect width="48" height="48" rx="8" fill="#D53F8C"/>
<path d="M22.4668 32.3086V9H25.7363V36H22.748L22.4668 32.3086ZM9.66992 26.7012V26.332C9.66992 24.8789 9.8457 23.5605 10.1973 22.377C10.5605 21.1816 11.0703 20.1562 11.7266 19.3008C12.3945 18.4453 13.1855 17.7891 14.0996 17.332C15.0254 16.8633 16.0566 16.6289 17.1934 16.6289C18.3887 16.6289 19.4316 16.8398 20.3223 17.2617C21.2246 17.6719 21.9863 18.2754 22.6074 19.0723C23.2402 19.8574 23.7383 20.8066 24.1016 21.9199C24.4648 23.0332 24.7168 24.293 24.8574 25.6992V27.3164C24.7285 28.7109 24.4766 29.9648 24.1016 31.0781C23.7383 32.1914 23.2402 33.1406 22.6074 33.9258C21.9863 34.7109 21.2246 35.3145 20.3223 35.7363C19.4199 36.1465 18.3652 36.3516 17.1582 36.3516C16.0449 36.3516 15.0254 36.1113 14.0996 35.6309C13.1855 35.1504 12.3945 34.4766 11.7266 33.6094C11.0703 32.7422 10.5605 31.7227 10.1973 30.5508C9.8457 29.3672 9.66992 28.084 9.66992 26.7012ZM12.9395 26.332V26.7012C12.9395 27.6504 13.0332 28.541 13.2207 29.373C13.4199 30.2051 13.7246 30.9375 14.1348 31.5703C14.5449 32.2031 15.0664 32.7012 15.6992 33.0645C16.332 33.416 17.0879 33.5918 17.9668 33.5918C19.0449 33.5918 19.9297 33.3633 20.6211 32.9062C21.3242 32.4492 21.8867 31.8457 22.3086 31.0957C22.7305 30.3457 23.0586 29.5312 23.293 28.6523V24.416C23.1523 23.7715 22.9473 23.1504 22.6777 22.5527C22.4199 21.9434 22.0801 21.4043 21.6582 20.9355C21.248 20.4551 20.7383 20.0742 20.1289 19.793C19.5312 19.5117 18.8223 19.3711 18.002 19.3711C17.1113 19.3711 16.3438 19.5586 15.6992 19.9336C15.0664 20.2969 14.5449 20.8008 14.1348 21.4453C13.7246 22.0781 13.4199 22.8164 13.2207 23.6602C13.0332 24.4922 12.9395 25.3828 12.9395 26.332Z" fill="#181B23"/>
<path d="M30.4473 33.3984C30.4473 32.6016 30.7285 31.9336 31.291 31.3945C31.8652 30.8555 32.6094 30.5859 33.5234 30.5859C34.4492 30.5859 35.1875 30.8555 35.7383 31.3945C36.3008 31.9336 36.582 32.6016 36.582 33.3984C36.582 34.1836 36.3008 34.8457 35.7383 35.3848C35.1875 35.9238 34.4492 36.1934 33.5234 36.1934C32.6094 36.1934 31.8652 35.9238 31.291 35.3848C30.7285 34.8457 30.4473 34.1836 30.4473 33.3984Z" fill="#F5F5F5"/>
</svg>
